<?xml version="1.0" encoding="utf-8"?>
<!-- Generator: Adobe Illustrator 26.0.1, SVG Export Plug-In . SVG Version: 6.00 Build 0)  -->
<svg version="1.1" id="Layer_1" xmlns="http://www.w3.org/2000/svg" xmlns:xlink="http://www.w3.org/1999/xlink" x="0px" y="0px"
	 viewBox="0 0 32 32" style="enable-background:new 0 0 32 32;" xml:space="preserve">
<style type="text/css">
	.st0{fill:#FFFFFF;}
</style>
<g>
	
		<image style="overflow:visible;opacity:0.75;" width="31" height="30" xlink:href="8502345B8B6A5521.png"  transform="matrix(1 0 0 1 0.735 2)">
	</image>
	<g>
		<path class="st0" d="M22.6,27.9H9.4c-2.9,0-5.3-2.4-5.3-5.3V9.4c0-2.9,2.4-5.3,5.3-5.3h13.2c2.9,0,5.3,2.4,5.3,5.3v13.2
			C27.9,25.5,25.5,27.9,22.6,27.9z"/>
	</g>
</g>
<g>
	
		<image style="overflow:visible;opacity:0.75;" width="57" height="58" xlink:href="8502345B8B6A5523.png"  transform="matrix(1 0 0 1 69.735 -12)">
	</image>
	<g>
		<path class="st0" d="M112.3,41.4H84.4c-6.3,0-11.4-5.1-11.4-11.4V2c0-6.3,5.1-11.4,11.4-11.4h27.9c6.3,0,11.4,5.1,11.4,11.4V30
			C123.7,36.3,118.6,41.4,112.3,41.4z"/>
	</g>
</g>
<g>
	
		<image style="overflow:visible;opacity:0.75;" width="125" height="124" xlink:href="8502345B8B6A5526.png"  transform="matrix(1 0 0 1 154.735 -43)">
	</image>
	<g>
		<path class="st0" d="M246.3,69H188c-13.1,0-23.8-10.7-23.8-23.8v-58.3c0-13.1,10.7-23.8,23.8-23.8h58.3
			c13.1,0,23.8,10.7,23.8,23.8v58.3C270.1,58.3,259.5,69,246.3,69z"/>
	</g>
</g>
<g>
	
		<image style="overflow:visible;opacity:0.75;" width="250" height="250" xlink:href="8502345B8B6A5527.png"  transform="matrix(1 0 0 1 324.735 -105)">
	</image>
	<g>
		<path class="st0" d="M510.9,128.4H388.6c-28.3,0-51.3-23-51.3-51.3V-45.1c0-28.3,23-51.3,51.3-51.3h122.2
			c28.3,0,51.3,23,51.3,51.3V77.1C562.2,105.5,539.2,128.4,510.9,128.4z"/>
	</g>
</g>
<g>
	
		<image style="overflow:visible;opacity:0.75;" width="492" height="492" xlink:href="8502345B8B6A5522.png"  transform="matrix(1 0 0 1 622.735 -225)">
	</image>
	<g>
		<path class="st0" d="M997.4,246.3H740c-56.1,0-101.6-45.5-101.6-101.6v-257.3c0-56.1,45.5-101.6,101.6-101.6h257.3
			c56.1,0,101.6,45.5,101.6,101.6v257.3C1099,200.8,1053.5,246.3,997.4,246.3z"/>
	</g>
</g>
<g>
	
		<image style="overflow:visible;opacity:0.75;" width="999" height="1000" xlink:href="8502345B8B6A552D.png"  transform="matrix(1 0 0 1 1197.735 -478)">
	</image>
	<g>
		<path class="st0" d="M1960.2,497.2h-526.3c-120.4,0-218-97.6-218-218v-526.3c0-120.4,97.6-218,218-218h526.3
			c120.4,0,218,97.6,218,218v526.3C2178.2,399.6,2080.6,497.2,1960.2,497.2z"/>
	</g>
</g>
<path id="path4_00000018232146416889570050000014750259076102296494_" d="M505.9,48.3c-2.1,4.9-4.6,9.3-7.5,13.5
	c-4,5.6-7.1,9.5-9.7,11.7c-3.9,3.5-8,5.4-12.4,5.4c-3.2,0-7-0.9-11.4-2.8c-4.4-1.8-8.5-2.8-12.4-2.8c-4,0-8.2,0.9-12.7,2.8
	c-4.5,1.8-8.2,2.8-10.9,2.9c-4.2,0.2-8.5-1.7-12.7-5.6c-2.7-2.3-6.1-6.4-10.1-12.1c-4.3-6.1-7.9-13.1-10.7-21.2
	c-3-8.7-4.4-17.1-4.4-25.3c0-9.3,2-17.4,6.1-24.2c3.2-5.4,7.5-9.7,12.8-12.8c5.3-3.1,11-4.7,17.2-4.9c3.4,0,7.8,1.1,13.3,3.1
	c5.4,2,9,3.1,10.5,3.1c1.1,0,5.1-1.2,11.7-3.7c6.3-2.3,11.5-3.2,15.9-2.8c11.7,0.9,20.5,5.6,26.4,13.9C494.3-6.9,489,2,489.2,13.3
	c0.1,8.9,3.3,16.3,9.7,22.2c2.9,2.8,6.1,4.8,9.7,6.4C507.6,44.1,506.8,46.2,505.9,48.3L505.9,48.3z M479-57.4c0,7-2.5,13.5-7.6,19.5
	c-6.1,7.1-13.6,11.3-21.5,10.7c-0.1-0.8-0.1-1.7-0.1-2.6c0-6.7,2.9-13.8,8.1-19.7c2.6-3,5.9-5.4,9.8-7.4c4-1.9,7.7-3,11.2-3.2
	C479-59.3,479-58.3,479-57.4L479-57.4z"/>
<path id="path4_00000021080262315010098750000013854540956005449355_" d="M982.7,81.5c-4.3,9.9-9.3,18.9-15.2,27.4
	c-8,11.3-14.5,19.3-19.6,23.6c-7.9,7.2-16.2,10.9-25.2,11c-6.4,0-14.2-1.9-23.2-5.6c-9-3.7-17.3-5.6-25.1-5.6
	c-8,0-16.6,1.9-25.8,5.6c-9.2,3.7-16.6,5.6-22.2,5.9c-8.6,0.4-17.2-3.4-25.8-11.3c-5.4-4.7-12.3-12.9-20.5-24.5
	c-8.7-12.3-16-26.6-21.6-43c-6-17.6-9-34.7-9-51.3c0-18.9,4.2-35.2,12.3-49c6.6-10.9,15.2-19.6,25.9-25.9
	c10.7-6.3,22.3-9.6,34.8-9.9c6.9,0,15.8,2.1,26.9,6.3c11,4.2,18.2,6.3,21.3,6.3c2.3,0,10.3-2.4,23.6-7.4c12.8-4.6,23.4-6.4,32.2-5.7
	c23.8,1.9,41.7,11.3,53.6,28.2c-21.2,12.9-31.8,30.9-31.5,54c0.1,18.1,6.7,33.1,19.6,45c5.9,5.6,12.3,9.7,19.6,12.9
	C986.1,73.1,984.4,77.4,982.7,81.5L982.7,81.5z M928.1-132.9c0,14.2-5.2,27.4-15.5,39.5c-12.5,14.5-27.5,22.9-43.7,21.6
	c-0.1-1.7-0.3-3.4-0.3-5.3c0-13.6,5.9-28.1,16.3-40c5.3-6,11.9-11,19.9-15c8-3.9,15.6-6.2,22.8-6.4
	C928.1-136.7,928.1-134.8,928.1-132.9L928.1-132.9z"/>
<path id="path4_00000039124988369559958200000006215743135722017672_" d="M1935.1,152.9c-9,20.7-19.5,39.5-31.7,57.2
	c-16.8,23.6-30.2,40.4-41,49.4c-16.5,15-33.8,22.8-52.7,23.1c-13.5,0-29.6-3.9-48.5-11.7c-18.9-7.8-36.2-11.7-52.4-11.7
	c-16.8,0-34.7,3.9-53.9,11.7c-19.2,7.8-34.7,11.7-46.4,12.3c-18,0.9-35.9-7.2-53.9-23.6c-11.4-9.9-25.7-26.9-42.8-51.2
	c-18.3-25.7-33.5-55.7-45.2-89.8c-12.6-36.8-18.9-72.4-18.9-107.2c0-39.5,8.7-73.6,25.7-102.4c13.8-22.8,31.7-41,54.2-54.2
	s46.7-20.1,72.7-20.7c14.4,0,32.9,4.5,56.3,13.2c23.1,8.7,38,13.2,44.6,13.2c4.8,0,21.6-5.1,49.4-15.6c26.6-9.6,48.8-13.5,67.4-12
	c49.7,3.9,87.1,23.6,112,59c-44.3,26.9-66.5,64.7-65.9,112.9c0.3,37.7,14.1,69.2,41,94c12.3,11.7,25.7,20.4,41,26.9
	C1942.3,135.2,1938.7,144.2,1935.1,152.9L1935.1,152.9z M1821.1-295.2c0,29.6-10.8,57.2-32.3,82.6c-26,30.2-57.5,47.9-91.3,45.2
	c-0.3-3.6-0.6-7.2-0.6-11.1c0-28.4,12.3-58.7,34.1-83.5c11.1-12.6,24.8-23.1,41.6-31.4c16.8-8.1,32.6-12.9,47.6-13.5
	C1821.1-303,1821.1-299.1,1821.1-295.2L1821.1-295.2z"/>
<path id="path4_00000009580438517347992140000010469992213928876692_" d="M243.4,31.1c-1,2.3-2.1,4.3-3.5,6.3
	c-1.8,2.6-3.3,4.4-4.5,5.4c-1.8,1.6-3.7,2.5-5.8,2.5c-1.5,0-3.3-0.4-5.3-1.3s-4-1.3-5.8-1.3c-1.8,0-3.8,0.4-5.9,1.3
	c-2.1,0.9-3.8,1.3-5.1,1.4c-2,0.1-4-0.8-5.9-2.6c-1.3-1.1-2.8-3-4.7-5.6c-2-2.8-3.7-6.1-5-9.9c-1.4-4.1-2.1-8-2.1-11.8
	c0-4.3,1-8.1,2.8-11.3c1.5-2.5,3.5-4.5,6-6c2.5-1.4,5.1-2.2,8-2.3c1.6,0,3.6,0.5,6.2,1.4c2.5,1,4.2,1.4,4.9,1.4
	c0.5,0,2.4-0.6,5.4-1.7c2.9-1.1,5.4-1.5,7.4-1.3c5.5,0.4,9.6,2.6,12.3,6.5c-4.9,3-7.3,7.1-7.2,12.4c0,4.2,1.5,7.6,4.5,10.3
	c1.4,1.3,2.8,2.2,4.5,3C244.2,29.1,243.8,30.1,243.4,31.1L243.4,31.1z M230.8-18.3c0,3.3-1.2,6.3-3.6,9.1c-2.9,3.3-6.3,5.3-10,5
	c0-0.4-0.1-0.8-0.1-1.2c0-3.1,1.4-6.5,3.8-9.2c1.2-1.4,2.7-2.5,4.6-3.5c1.8-0.9,3.6-1.4,5.2-1.5C230.8-19.1,230.8-18.7,230.8-18.3
	L230.8-18.3z"/>
<path id="path4_00000132068979288844232310000004816715371557594249_" d="M110.9,23.2c-0.5,1.1-1,2.1-1.7,3
	c-0.9,1.2-1.6,2.1-2.2,2.6c-0.9,0.8-1.8,1.2-2.8,1.2c-0.7,0-1.6-0.2-2.6-0.6c-1-0.4-1.9-0.6-2.8-0.6c-0.9,0-1.8,0.2-2.8,0.6
	c-1,0.4-1.8,0.6-2.4,0.6c-0.9,0-1.9-0.4-2.8-1.2c-0.6-0.5-1.4-1.4-2.3-2.7c-1-1.4-1.8-2.9-2.4-4.7c-0.7-1.9-1-3.8-1-5.7
	c0-2.1,0.5-3.9,1.4-5.4c0.7-1.2,1.7-2.2,2.9-2.9s2.5-1.1,3.8-1.1c0.8,0,1.7,0.2,3,0.7c1.2,0.5,2,0.7,2.4,0.7c0.3,0,1.1-0.3,2.6-0.8
	c1.4-0.5,2.6-0.7,3.6-0.6c2.6,0.2,4.6,1.2,5.9,3.1c-2.3,1.4-3.5,3.4-3.5,6c0,2,0.7,3.6,2.2,5c0.6,0.6,1.4,1.1,2.2,1.4
	C111.2,22.3,111,22.8,110.9,23.2L110.9,23.2z M104.8-0.4c0,1.6-0.6,3-1.7,4.4c-1.4,1.6-3,2.5-4.8,2.4c0-0.2,0-0.4,0-0.6
	c0-1.5,0.6-3.1,1.8-4.4c0.6-0.7,1.3-1.2,2.2-1.7c0.9-0.4,1.7-0.7,2.5-0.7C104.8-0.8,104.8-0.6,104.8-0.4L104.8-0.4z"/>
<path id="path4_00000140721942097211392980000014249726635400516503_" d="M21.9,19.4c-0.2,0.5-0.5,1-0.8,1.4c-0.4,0.6-0.7,1-1,1.2
	c-0.4,0.4-0.8,0.6-1.3,0.6c-0.3,0-0.7-0.1-1.2-0.3S16.7,22,16.3,22c-0.4,0-0.9,0.1-1.3,0.3c-0.5,0.2-0.9,0.3-1.1,0.3
	c-0.4,0-0.9-0.2-1.3-0.6c-0.3-0.2-0.6-0.7-1.1-1.3c-0.5-0.6-0.8-1.4-1.1-2.2c-0.3-0.9-0.5-1.8-0.5-2.6c0-1,0.2-1.8,0.6-2.5
	c0.3-0.6,0.8-1,1.3-1.3c0.6-0.3,1.2-0.5,1.8-0.5c0.4,0,0.8,0.1,1.4,0.3c0.6,0.2,0.9,0.3,1.1,0.3c0.1,0,0.5-0.1,1.2-0.4
	c0.7-0.2,1.2-0.3,1.7-0.3c1.2,0.1,2.2,0.6,2.8,1.5c-1.1,0.7-1.6,1.6-1.6,2.8c0,0.9,0.3,1.7,1,2.3c0.3,0.3,0.6,0.5,1,0.7
	C22.1,18.9,22,19.2,21.9,19.4L21.9,19.4z M19.1,8.3c0,0.7-0.3,1.4-0.8,2c-0.6,0.7-1.4,1.2-2.3,1.1c0-0.1,0-0.2,0-0.3
	c0-0.7,0.3-1.4,0.8-2.1c0.3-0.3,0.6-0.6,1-0.8C18.3,8.2,18.7,8,19,8C19.1,8.1,19.1,8.2,19.1,8.3L19.1,8.3z"/>
<path id="path4_00000003096512275469990940000008640949411443116429_" d="M-38.1,18.9c-0.2,0.4-0.3,0.7-0.6,1
	c-0.3,0.4-0.5,0.7-0.7,0.9c-0.3,0.3-0.6,0.4-0.9,0.4c-0.2,0-0.5-0.1-0.9-0.2s-0.6-0.2-0.9-0.2c-0.3,0-0.6,0.1-1,0.2
	c-0.3,0.1-0.6,0.2-0.8,0.2c-0.3,0-0.6-0.1-1-0.4c-0.2-0.2-0.5-0.5-0.8-0.9c-0.3-0.5-0.6-1-0.8-1.6c-0.2-0.7-0.3-1.3-0.3-1.9
	c0-0.7,0.2-1.3,0.5-1.8c0.2-0.4,0.6-0.7,1-1c0.4-0.2,0.8-0.4,1.3-0.4c0.3,0,0.6,0.1,1,0.2c0.4,0.2,0.7,0.2,0.8,0.2
	c0.1,0,0.4-0.1,0.9-0.3c0.5-0.2,0.9-0.2,1.2-0.2c0.9,0.1,1.5,0.4,2,1c-0.8,0.5-1.2,1.1-1.2,2c0,0.7,0.2,1.2,0.7,1.7
	c0.2,0.2,0.5,0.4,0.7,0.5C-38,18.6-38.1,18.8-38.1,18.9L-38.1,18.9z M-40.1,11c0,0.5-0.2,1-0.6,1.5c-0.5,0.5-1,0.8-1.6,0.8
	c0-0.1,0-0.1,0-0.2c0-0.5,0.2-1,0.6-1.5c0.2-0.2,0.4-0.4,0.7-0.6c0.3-0.1,0.6-0.2,0.8-0.2C-40.1,10.8-40.1,10.9-40.1,11L-40.1,11z"
	/>
</svg>
